# xmcd
#
# Track frame offsets: 
#        150
#        11927
#        23812
#        40595
#        54386
#        66659
#        76865
#        88670
#        103024
#        116071
#        129116
#        141520
#        154238
#        166145
#        176545
#        188307
#        200891
#        215098
#        228891
#        241577
#        253809
#        267015
#        279940
#        291774
#        303471
#
# Disc length: 4222 seconds
#
# Revision: 0
# Processed by: cddbd v1.5.1PL2 Copyright (c) Steve Scherf et al.
# Submitted via: ExactAudioCopy v0.95b1
#
DISCID=5d107c19
DTITLE=Various Artist - Road To Nashville -History Of Country Music 1926-53 C
DTITLE=D2
DYEAR=1900
DGENRE=Country
TTITLE0=Cotton Mill Colic - Dave McCarn
TTITLE1=Hallelujah I'm A Bum - Haywire Mac Mclintock
TTITLE2=I Didn't Hear Anybody Pray - Dixon Brothers
TTITLE3=Just Because - Shelton Brothers
TTITLE4=Are You From Dixie - Blue Sky Boys
TTITLE5=Nine Pound Hammer - Monroe Brothers
TTITLE6=San Antonio Rose - Bob Wills
TTITLE7=Milk Cow Blues - Cliff Bruner
TTITLE8=Under The Double Eagle - Bill Boyd
TTITLE9=Shame On You - Spade Cooley
TTITLE10=Jessie Polka - Adolph Hofner
TTITLE11=Jolie Blon - Harry Choates
TTITLE12=Chattanooga Show Shine Boy - Tommy Duncan
TTITLE13=Sally Let Your Bangs Hang Down - Maddox Brothers and Rose
TTITLE14=Deed I Do - Farr Brothers
TTITLE15=Cool Water - Sons Of The Pioneers
TTITLE16=Listen To The Rhythm Of The Range - Roy Rogers
TTITLE17=New Moon Over My Shoulder - Tex Ritter
TTITLE18=At Mail Call Today - Gene Autry
TTITLE19=There's A Star Spangled Banner Waving Somewhere - Elton Britt
TTITLE20=Last Page Of Mein Kampf - The Texas Jim Robertson
TTITLE21=Blues Stay Away From Me - Delmore Brothers
TTITLE22=Satisfied - Martha Carson
TTITLE23=Fire Ball Mail - Roy Acuff
TTITLE24=Smoke Smoke Smoke - Tex Williams
EXTD=
EXTT0=
EXTT1=
EXTT2=
EXTT3=
EXTT4=
EXTT5=
EXTT6=
EXTT7=
EXTT8=
EXTT9=
EXTT10=
EXTT11=
EXTT12=
EXTT13=
EXTT14=
EXTT15=
EXTT16=
EXTT17=
EXTT18=
EXTT19=
EXTT20=
EXTT21=
EXTT22=
EXTT23=
EXTT24=
PLAYORDER=
